#!OML:ASF I:\golf\golf\golf 2\Subject 1\2002-09-07\Subject1.ASF
:FULLY-SPECIFIED
:DEGREES
403
root 2.06266 11.5478 -2.24859 16.9998 -4.22222 -2.91184
lowerback 41.9183 7.92297 5.78985
upperback 15.5089 11.8106 5.91097
thorax -2.59355 5.53672 -0.934337
lowerneck -2.26504 -7.74156 0.435621
upperneck 23.8312 -7.82301 -11.9325
head 7.10383 -4.43703 -4.43844
rclavicle -2.22639e-014 -6.36111e-015
rhumerus 29.1809 -16.1888 -82.583
rradius 26.7365
rwrist -0.213641
rhand -42.1496 20.1388
rfingers 7.12502
rthumb -15.0393 -9.29496
lclavicle -2.22639e-014 -6.36111e-015
lhumerus -37.4232 -48.013 97.591
lradius 97.9344
lwrist -27.671
lhand -52.0892 30.0408
lfingers 7.12502
lthumb -24.593 58.481
rfemur -89.2911 -49.2323 36.6344
rtibia 125.291
rfoot -28.3886 9.62973
rtoes -17.5159
lfemur -92.5759 12.5017 -21.9971
ltibia 114.478
lfoot -29.0592 -11.5082
ltoes -12.9505
404
root 2.06112 11.6091 -2.2598 17.2454 -4.03819 -2.90057
lowerback 41.9666 7.84402 6.02165
upperback 15.4125 11.811 5.86572
thorax -2.66179 5.54399 -1.10097
lowerneck -2.19876 -7.80624 0.488205
upperneck 23.7613 -7.9223 -11.9272
head 7.0595 -4.47512 -4.44241
rclavicle 5.725e-014 1.74931e-014
rhumerus 29.3214 -16.86 -82.7552
rradius 26.7777
rwrist -0.519964
rhand -41.4585 19.7102
rfingers 7.12502
rthumb -14.3734 -9.77214
lclavicle 5.725e-014 1.74931e-014
lhumerus -37.4 -48.2201 97.5911
lradius 97.5974
lwrist -28.3807
lhand -52.0315 29.6752
lfingers 7.12502
lthumb -24.5377 58.123
rfemur -89.1557 -48.7455 36.8028
rtibia 124.681
rfoot -28.3598 9.2656
rtoes -17.1895
lfemur -92.4178 12.1177 -21.9353
ltibia 113.807
lfoot -28.99 -11.3225
ltoes -12.4291
405
root 2.06105 11.6697 -2.26958 17.5274 -3.87683 -2.80745
lowerback 41.9843 7.74982 6.15582
upperback 15.304 11.7554 5.78793
thorax -2.74769 5.52196 -1.23518
lowerneck -2.00605 -7.82755 0.389114
upperneck 23.4933 -8.00109 -11.7458
head 6.94756 -4.49829 -4.34822
rclavicle 6.36111e-015 -1.11319e-014
rhumerus 29.4788 -17.4891 -83.016
rradius 26.8581
rwrist -0.771128
rhand -40.9398 19.2853
rfingers 7.12502
rthumb -13.8736 -10.232
lclavicle 6.36111e-015 -1.11319e-014
lhumerus -37.4163 -48.3861 97.6643
lradius 97.6329
lwrist -27.9059
lhand -51.4177 28.4113
lfingers 7.12502
lthumb -23.9492 56.9376
rfemur -89.1508 -48.2773 36.9312
rtibia 124.09
rfoot -28.3874 8.83638
rtoes -17.6043
lfemur -92.2984 11.6659 -21.9631
ltibia 113.092
lfoot -28.8674 -11.0447
ltoes -12.2911
406
root 2.06053 11.7339 -2.27511 17.7925 -3.81327 -2.83261
lowerback 42.0463 7.69462 6.26167
upperback 15.1847 11.7372 5.72328
thorax -2.86513 5.51183 -1.36033
lowerneck -1.67656 -7.85175 0.259129
upperneck 23.0267 -8.09782 -11.5807
head 6.74739 -4.52899 -4.23915
rclavicle -4.77083e-014 9.85972e-014
rhumerus 29.5607 -17.9966 -83.2312
rradius 26.9606
rwrist -1.03983
rhand -40.4994 18.808
rfingers 7.12502
rthumb -13.4492 -10.7378
lclavicle -4.77083e-014 9.85972e-014
lhumerus -37.5068 -48.3888 97.7518
lradius 97.7465
lwrist -27.3725
lhand -51.2395 27.8281
lfingers 7.12502
lthumb -23.7783 56.3768
rfemur -88.8535 -47.7409 36.9088
rtibia 123.521
rfoot -28.3385 9.02569
rtoes -16.2893
lfemur -92.1266 11.4453 -21.9116
ltibia 112.38
lfoot -28.7648 -10.9256
ltoes -11.8768
407
root 2.05892 11.8008 -2.28263 18.1747 -3.73926 -2.98111
lowerback 41.9308 7.64607 6.45971
upperback 15.0877 11.7492 5.67368
thorax -2.89217 5.5245 -1.5077
lowerneck -1.39946 -7.89597 0.208231
upperneck 22.6109 -8.20885 -11.4956
head 6.56454 -4.56769 -4.17454
rclavicle -1.27222e-014 3.18055e-014
rhumerus 29.6326 -18.5477 -83.4626
rradius 27.0844
rwrist -1.33122
rhand -39.8928 18.4712
rfingers 7.12502
rthumb -12.8645 -11.1124
lclavicle -1.27222e-014 3.18055e-014
lhumerus -37.5084 -48.4389 97.7506
lradius 97.915
lwrist -26.867
lhand -51.0326 27.3206
lfingers 7.12502
lthumb -23.5799 55.895
rfemur -88.7463 -47.0754 37.1993
rtibia 122.922
rfoot -28.2397 9.00616
rtoes -14.8134
lfemur -92.099 11.3284 -21.7755
ltibia 111.648
lfoot -28.6253 -10.9375
ltoes -11.2828
408
root 2.05647 11.8682 -2.29383 18.5793 -3.60767 -2.98744
lowerback 41.7319 7.57287 6.6007
upperback 15.0111 11.7049 5.60305
thorax -2.88065 5.51405 -1.62248
lowerneck -1.11139 -7.92934 0.146739
upperneck 22.2101 -8.31096 -11.3628
head 6.38944 -4.59929 -4.09338
rclavicle -8.5875e-014 1.74931e-014
rhumerus 29.7797 -19.3319 -83.9309
rradius 27.2224
rwrist -1.53159
rhand -39.3975 18.5376
rfingers 7.12502
rthumb -12.3869 -11.0754
lclavicle -8.5875e-014 1.74931e-014
lhumerus -37.4658 -48.5499 97.7285
lradius 98.0564
lwrist -26.4393
lhand -50.4925 26.8465
lfingers 7.12502
lthumb -23.0617 55.4866
rfemur -89.0166 -46.4373 37.7462
rtibia 122.214
rfoot -28.2184 7.93098
rtoes -15.9787
lfemur -92.0859 11.0423 -21.7438
ltibia 110.858
lfoot -28.3617 -10.9337
ltoes -10.6481
409
root 2.05333 11.9398 -2.30446 18.8448 -3.48812 -2.88744
lowerback 41.7561 7.51965 6.6594
upperback 14.9085 11.6701 5.5315
thorax -2.97709 5.49724 -1.72285
lowerneck -0.884133 -7.96551 0.113729
upperneck 21.8854 -8.40552 -11.2634
head 6.2473 -4.62998 -4.03398
rclavicle 4.13472e-014 1.74931e-014
rhumerus 29.8967 -20.1868 -84.3984
rradius 27.4574
rwrist -1.77178
rhand -39.1388 18.1309
rfingers 7.12502
rthumb -12.1375 -11.497
lclavicle 4.13472e-014 1.74931e-014
lhumerus -37.561 -48.6935 97.8423
lradius 98.0495
lwrist -26.2684
lhand -50.1195 26.5951
lfingers 7.12502
lthumb -22.7038 55.2795
rfemur -89.0025 -45.8999 37.9801
rtibia 121.422
rfoot -28.02 7.34176
rtoes -15.7734
lfemur -91.8824 10.7158 -21.7818
ltibia 110.079
lfoot -28.168 -10.7558
ltoes -10.4424
410
root 2.0503 12.0204 -2.31311 19.0847 -3.41359 -2.78124
lowerback 41.7757 7.51097 6.64854
upperback 14.8185 11.6615 5.47033
thorax -3.07217 5.48995 -1.78797
lowerneck -0.754946 -8.01211 0.192689
upperneck 21.6444 -8.49068 -11.304
head 6.13596 -4.66121 -4.04468
rclavicle -1.27222e-013 8.11041e-014
rhumerus 29.97 -20.9393 -84.7763
rradius 27.8532
rwrist -2.07189
rhand -38.8364 17.0309
rfingers 7.12502
rthumb -11.8459 -12.614
lclavicle -1.27222e-013 8.11041e-014
lhumerus -37.6368 -48.8205 97.9207
lradius 97.8079
lwrist -26.4755
lhand -50.2058 26.5472
lfingers 7.12502
lthumb -22.7866 55.2214
rfemur -88.7684 -45.4129 38.0517
rtibia 120.584
rfoot -27.8134 7.07605
rtoes -14.8299
lfemur -91.5971 10.4405 -21.8325
ltibia 109.307
lfoot -28.1255 -10.3386
ltoes -10.7939
411
root 2.04832 12.1051 -2.31879 19.3828 -3.40577 -2.68652
lowerback 41.6393 7.5375 6.56427
upperback 14.7631 11.654 5.40382
thorax -3.09586 5.4865 -1.80984
lowerneck -0.716717 -8.04237 0.340613
upperneck 21.5172 -8.53198 -11.44
head 6.07024 -4.67685 -4.10426
rclavicle -8.90555e-014 5.24792e-014
rhumerus 30.012 -21.5871 -85.1741
rradius 28.4322
rwrist -2.47494
rhand -38.4509 15.8394
rfingers 7.12502
rthumb -11.4742 -13.8266
lclavicle -8.90555e-014 5.24792e-014
lhumerus -37.6068 -48.8777 97.9017
lradius 97.6473
lwrist -26.3276
lhand -49.9971 26.4032
lfingers 7.12502
lthumb -22.5863 55.1019
rfemur -88.5594 -44.9017 38.1651
rtibia 119.748
rfoot -27.9656 6.18552
rtoes -16.1297
lfemur -91.3438 10.2004 -21.881
ltibia 108.489
lfoot -28.0586 -9.97512
ltoes -11.1005
